# xmcd
#
# Track frame offsets:
#	150
#	14770
#	26397
#	38422
#	51212
#	66225
#	79965
#	90892
#	105175
#	118055
#	129272
#	139447
#	157790
#	168710
#	180575
#	194852
#	208362
#	222890
#	234470
#	248602
#
# Disc length: 3465 seconds
#
# Revision: 2
# Processed by: cddbd v1.5.2PL0 Copyright (c) Steve Scherf et al.
# Submitted via: EasyCDDAExtractor 12.0.0.1
#
DISCID=130d8714
DTITLE=TV Themes - Twenty Great LWT TV Themes
DYEAR=1989
DGENRE=TV
TTITLE0=Wish Me Luck
TTITLE1=Vanity Fair
TTITLE2=The World Cup (Aztec Gold)
TTITLE3=Forever Green
TTITLE4=Me and My Girl
TTITLE5=Inspector Morse
TTITLE6=Tales of the Unexpected
TTITLE7=To Have and To Hold
TTITLE8=Eye Witness
TTITLE9=Campion
TTITLE10=Agatha Christie's Poirot
TTITLE11=Square Deal
TTITLE12=Dr Who
TTITLE13=The Match (Goal Crazy)
TTITLE14=Seven Faces of Woman (She)
TTITLE15=The Professionals
TTITLE16=Upstairs Downstairs
TTITLE17=The Two of Us
TTITLE18=The One Game (Saylon Dola)
TTITLE19=The Ruth Rendell Mysteries
EXTD=
EXTT0=
EXTT1=
EXTT2=
EXTT3=
EXTT4=
EXTT5=
EXTT6=
EXTT7=
EXTT8=
EXTT9=
EXTT10=
EXTT11=
EXTT12=
EXTT13=
EXTT14=
EXTT15=
EXTT16=
EXTT17=
EXTT18=
EXTT19=
PLAYORDER=
